<svg id="Layer_1" height="512" viewBox="0 0 512 512" width="512" xmlns="http://www.w3.org/2000/svg" data-name="Layer 1"><path d="m293.74 36.13-32.375-26-32.437 26-32.469-26-32.484 26-32.493-26-32.746 26-32.736-26v391.47l32.76-26 32.625 26 32.562-26 32.532 26.06 129.521-129.66v-261.87z" fill="#cae6ee"/><path d="m326.5 261.88a118.524 118.524 0 1 1 -1-.01c.33 0 .67 0 1 .01z" fill="#fb6771"/><path d="m325.68 304.17a12.605 12.605 0 1 1 -12.6 12.61 12.6 12.6 0 0 1 12.6-12.61z" fill="#6d7486"/><path d="m404.22 397.66h-157.07c3.03-37.86 36.96-67.56 78.53-67.56s75.51 29.7 78.54 67.56z" fill="#b0b5ca"/><path d="m407.63 413.85-1.02 5.76a17.049 17.049 0 0 1 -16.8 14.11h-128.37a17.058 17.058 0 0 1 -16.85-14.43l-.85-5.44z" fill="#4a5160"/><path d="m66 10.13v391.47l30-23.81v-343.833z" fill="#b2cbd1"/><path d="m236.1 393.93a120 120 0 0 1 104.391-131.119 120.9 120.9 0 0 0 -13.991-.931c-.33-.01-.67-.01-1-.01a120 120 0 1 0 0 240 121.117 121.117 0 0 0 15.011-.933 120.049 120.049 0 0 1 -104.411-107.007z" fill="#de3c44"/><path d="m408.17 397h-164.97a8.39 8.39 0 0 0 -6.07 2.35 8.577 8.577 0 0 0 6.07 14.65h165.1a8.445 8.445 0 0 0 6-2.6 8.193 8.193 0 0 0 2.487-5.937 8.513 8.513 0 0 0 -8.617-8.463z" fill="#6d7486"/><g fill="#284268"><path d="m229.823 80h62.937a6 6 0 0 0 0-12h-62.937a6 6 0 1 0 0 12z"/><path d="m229.823 106h62.937a6 6 0 0 0 0-12h-62.937a6 6 0 1 0 0 12z"/><path d="m102.564 238h-2.324a6 6 0 0 0 0 12h2.324a6 6 0 0 0 0-12z"/><path d="m143.317 238h-17.561a6 6 0 1 0 0 12h17.561a6 6 0 0 0 0-12z"/><path d="m298.76 244a6 6 0 0 0 -6-6h-125.875a6 6 0 0 0 0 12h125.875a6 6 0 0 0 6-6z"/><path d="m102.564 188h-2.324a6 6 0 0 0 0 12h2.324a6 6 0 0 0 0-12z"/><path d="m143.317 188h-17.561a6 6 0 1 0 0 12h17.561a6 6 0 0 0 0-12z"/><path d="m160.885 194a6 6 0 0 0 6 6h125.875a6 6 0 0 0 0-12h-125.875a6 6 0 0 0 -6 6z"/><path d="m102.564 297h-2.324a6 6 0 0 0 0 12h2.324a6 6 0 0 0 0-12z"/><path d="m143.317 297h-17.561a6 6 0 1 0 0 12h17.561a6 6 0 0 0 0-12z"/><path d="m126 151.138v-3.678a20.249 20.249 0 0 0 14.77-19.875 20.789 20.789 0 0 0 -20.765-20.766 8.767 8.767 0 1 1 8.768-8.767 6 6 0 1 0 12 0 20.25 20.25 0 0 0 -14.773-19.875v-3.005a6 6 0 0 0 -12 0v3.005a20.245 20.245 0 0 0 -14.764 19.875 20.792 20.792 0 0 0 20.769 20.767 8.764 8.764 0 0 1 .1 17.528c-.034 0-.066 0-.1 0s-.067 0-.1 0a8.774 8.774 0 0 1 -8.665-8.762 6 6 0 0 0 -12 0 20.243 20.243 0 0 0 14.76 19.875v3.678a6 6 0 1 0 12 0z"/><path d="m167 151.138a6 6 0 1 0 12 0v-3.678a20.466 20.466 0 0 0 15.017-19.875 20.684 20.684 0 0 0 -20.642-20.766 8.767 8.767 0 1 1 8.876-8.767 6.006 6.006 0 0 0 6.008 6 5.8 5.8 0 0 0 5.754-6 20.464 20.464 0 0 0 -15.013-19.875v-3.005a6 6 0 0 0 -12 0v3.005a21.256 21.256 0 0 0 -14.517 19.875 20.9 20.9 0 0 0 20.892 20.767 8.829 8.829 0 0 1 8.829 8.766 8.721 8.721 0 0 1 -8.6 8.762c-.035 0-.068 0-.1 0s-.067 0-.1 0a8.774 8.774 0 0 1 -8.665-8.762 6 6 0 0 0 -6-6 6.219 6.219 0 0 0 -6.25 6 21.254 21.254 0 0 0 14.511 19.875z"/><path d="m229.823 156h62.937a6 6 0 0 0 0-12h-62.937a6 6 0 1 0 0 12z"/><path d="m229.823 131h62.937a6 6 0 0 0 0-12h-62.937a6 6 0 1 0 0 12z"/><path d="m383.341 345.159a86.7 86.7 0 0 0 -41.272-19.576 18.607 18.607 0 1 0 -32.769 0 86.7 86.7 0 0 0 -41.265 19.565 77.145 77.145 0 0 0 -26.205 46.589 14.581 14.581 0 0 0 -3.351 28.315l.183 1.31a23.064 23.064 0 0 0 22.782 19.638h128.369a23.144 23.144 0 0 0 22.71-19.21l.276-1.639a14.614 14.614 0 0 0 -3.259-28.4 77.166 77.166 0 0 0 -26.199-46.592zm-57.656-34.989a6.606 6.606 0 1 1 -6.606 6.6 6.612 6.612 0 0 1 6.606-6.6zm64.128 118.83h-128.369c-4.97 0-9.2-4-10.581-8h149.531c-1.387 4-5.643 8-10.581 8zm20.945-22.5a2.518 2.518 0 0 1 -2.592 2.5h-164.966a2.5 2.5 0 1 1 0-5h164.966a2.518 2.518 0 0 1 2.592 2.5zm-156.758-14.5c2.67-15 10.289-27.58 21.888-37.612a77.135 77.135 0 0 1 99.605.047c11.592 10.032 19.207 22.565 21.879 37.565z"/><path d="m332 256.04v-245.907a5.718 5.718 0 0 0 -9.373-4.685l-28.695 23-28.726-23a5.977 5.977 0 0 0 -7.48 0l-28.746 23-28.747-23a6 6 0 0 0 -7.494 0l-28.751 23-28.751-23a6 6 0 0 0 -7.5 0l-28.737 23.001-28.746-23a6.436 6.436 0 0 0 -6.6-.722 6.241 6.241 0 0 0 -3.654 5.406v391.467a6.243 6.243 0 0 0 3.65 5.408 6.556 6.556 0 0 0 2.724.592 6.178 6.178 0 0 0 3.812-1.314l28.788-23 28.773 23a6.022 6.022 0 0 0 7.512 0l28.753-23 28.751 23a6 6 0 0 0 7.5 0l1.41-1.128c10.727 56.959 60.113 100.691 119.618 102.642a126.136 126.136 0 0 0 130.209-127.035c-.563-65.009-54.785-121.33-119.5-124.725zm-10.3 239.76c-59.86-1.957-108.38-50.639-110.147-110.5a113.855 113.855 0 0 1 44.583-93.835 6 6 0 1 0 -7.4-9.44 127.156 127.156 0 0 0 -16.278 14.975h-65.573a6 6 0 0 0 0 12h55.894a125.328 125.328 0 0 0 -23.209 77.116c.057 1.718.157 3.426.283 5.127l-3.342 2.673-28.751-23a6 6 0 0 0 -7.5 0l-28.754 23-28.757-23a6.362 6.362 0 0 0 -7.746 0l-23.003 18.202v-366.5l23 18.2a6.181 6.181 0 0 0 7.622 0l28.81-23 28.782 23a6.022 6.022 0 0 0 7.512 0l28.759-23 28.755 23a6 6 0 0 0 7.5 0l28.755-23 28.757 23a5.649 5.649 0 0 0 7.246 0l22.502-18.202v233.372a125.143 125.143 0 0 0 -39.629 8.241 5.99 5.99 0 0 0 -2.4 9.418 6.008 6.008 0 0 0 6.785 1.747 113.523 113.523 0 0 1 43.68-7.493c61.122 1.545 110.512 51.78 111.061 112.92a114.121 114.121 0 0 1 -117.797 114.979z"/></g></svg>