<svg id="Capa_1" enable-background="new 0 0 512 512" height="512" viewBox="0 0 512 512" width="512" xmlns="http://www.w3.org/2000/svg"><g><path d="m499.201 257.575h-28.584c-7.064 0-13.302-4.715-15.109-11.543-8.995-33.979-29.11-63.437-56.212-84.242-.732-.562-1.165-1.426-1.165-2.348v-42.188c0-3.277-2.653-5.952-5.929-5.954-15.665-.01-29.707 9.657-35.288 24.292-.57 1.494-2.212 2.253-3.729 1.751-15.506-5.131-32.084-7.909-49.311-7.909h-8.258c-12.543 29.396-41.71 50-75.69 50-33.44 0-62.218-19.954-75.079-48.605-77.277 10.272-137.632 76.07-137.346 156.024.202 56.352 30.12 105.701 74.902 133.193 4.968 3.05 7.986 8.469 7.986 14.298v58.766c0 2.192 1.777 3.969 3.969 3.969h48.436c1.594 0 3.033-.953 3.655-2.421l16.55-39.056c1.966-7.357 8.631-12.474 16.246-12.474h109.729c7.615 0 14.28 5.117 16.246 12.474l16.551 39.056c.622 1.468 2.061 2.421 3.655 2.421h48.436c2.192 0 3.969-1.777 3.969-3.969v-58.765c0-5.855 3.058-11.271 8.047-14.337 12.613-7.751 24.046-17.237 33.966-28.125 14.787-16.23 35.513-25.773 57.469-25.773h10.211c2.458 0 4.594-1.691 5.157-4.084l.593-2.519c7.461-31.68 11.229-64.119 11.226-96.666 0-2.913-2.386-5.266-5.299-5.266z" fill="#eab1b7"/><path d="m499.201 257.575h-28.584c-2.23 0-4.378-.47-6.33-1.329-.89 28.04-4.577 55.932-11.013 83.26l-.593 2.52c-.563 2.393-2.699 4.084-5.157 4.084h-10.212c-21.656 0-42.393 9.047-56.89 25.134-29.348 32.568-72.158 52.771-119.644 51.856l-129.598-.118c-19.694.836-38.627-1.961-56.185-7.777 2.421 1.681 4.891 3.295 7.408 4.841 4.968 3.05 7.986 8.469 7.986 14.298v58.766c0 2.192 1.777 3.969 3.969 3.969h48.436c1.594 0 3.033-.953 3.655-2.421l16.55-39.056c1.966-7.357 8.631-12.475 16.246-12.475h109.729c7.615 0 14.28 5.118 16.246 12.475l16.551 39.056c.622 1.467 2.061 2.42 3.655 2.42h48.436c2.192 0 3.969-1.777 3.969-3.969v-58.765c0-5.855 3.058-11.271 8.047-14.337 12.613-7.751 24.046-17.237 33.966-28.125 14.787-16.23 35.513-25.773 57.469-25.773h10.211c2.458 0 4.594-1.691 5.157-4.084l.593-2.52c7.461-31.68 11.229-64.119 11.226-96.666 0-2.911-2.386-5.264-5.299-5.264z" fill="#e4989d"/><circle cx="219.924" cy="97.176" fill="#ffd064" r="82.256"/><path d="m235.305 16.356c16.512 15.044 26.875 36.722 26.875 60.82 0 45.428-36.827 82.255-82.255 82.255-5.257 0-10.398-.493-15.38-1.436 14.616 13.317 34.05 21.436 55.38 21.436 45.428 0 82.256-36.827 82.256-82.255-.001-40.172-28.799-73.617-66.876-80.82z" fill="#ffc250"/><circle cx="219.924" cy="97.176" fill="#ebb044" r="56.52"/><path d="m211.641 153.094c2.704.397 5.469.603 8.283.603 31.215 0 56.52-25.305 56.52-56.52 0-15.709-6.409-29.921-16.755-40.165 1.626 6.452 2.49 13.208 2.49 20.165.001 34.186-20.855 63.501-50.538 75.917z" fill="#e49824"/><path d="m228.421 124.68h-16.993c-2.247 0-4.068-1.821-4.068-4.068v-46.871c0-2.247 1.821-4.068 4.068-4.068h16.993c2.247 0 4.068 1.821 4.068 4.068v46.871c0 2.246-1.821 4.068-4.068 4.068z" fill="#ffd064"/><path d="m160.868 154.432h-26.86c-1.479 0-2.677 1.199-2.677 2.677v19.645c0 1.479 1.199 2.677 2.677 2.677h85.917c-23.173.001-44.107-9.581-59.057-24.999z" fill="#e28086"/><path d="m304.503 154.432h-25.521c-14.95 15.418-35.885 25-59.057 25h84.578c1.479 0 2.677-1.199 2.677-2.677v-19.645c0-1.479-1.199-2.678-2.677-2.678z" fill="#e28086"/><path d="m219.925 161.196c35.301 0 64.02-28.72 64.02-64.021 0-8.126-1.504-16.049-4.472-23.548-1.523-3.851-5.88-5.739-9.733-4.214-3.852 1.523-5.738 5.881-4.214 9.733 2.269 5.734 3.419 11.8 3.419 18.028 0 27.03-21.99 49.021-49.02 49.021s-49.021-21.99-49.021-49.021c0-27.029 21.99-49.02 49.021-49.02 9.394 0 18.518 2.662 26.384 7.698 3.488 2.231 8.126 1.216 10.36-2.272 2.233-3.488 1.216-8.127-2.272-10.36-10.285-6.585-22.206-10.065-34.472-10.065-35.301 0-64.021 28.719-64.021 64.02s28.72 64.021 64.021 64.021z"/><path d="m211.428 62.173c-6.379 0-11.568 5.189-11.568 11.568v46.87c0 6.379 5.189 11.568 11.568 11.568h16.993c6.379 0 11.568-5.189 11.568-11.568v-46.87c0-6.379-5.189-11.568-11.568-11.568zm13.561 55.007h-10.13v-40.007h10.13z"/><path d="m499.201 250.074h-28.584c-3.698 0-6.93-2.452-7.859-5.962-9.035-34.132-29.284-64.905-57.127-86.896v-39.965c0-7.382-5.984-13.454-13.453-13.454-17.201 0-32.994 9.962-40.55 25.183-14.693-4.455-29.944-6.817-45.425-7.032 2.263-7.871 3.477-16.183 3.477-24.772 0-49.491-40.264-89.755-89.755-89.755s-89.756 40.264-89.756 89.755c0 9.67 1.537 18.988 4.38 27.722-77.616 14.806-134.831 82.852-134.548 161.981.102 28.495 7.615 56.549 21.729 81.127 13.688 23.838 33.312 44.043 56.749 58.432 2.721 1.67 4.41 4.699 4.41 7.906v58.766c0 6.324 5.145 11.47 11.469 11.47h48.436c4.614 0 8.76-2.745 10.561-6.995l16.55-39.056c.137-.321.25-.651.34-.989 1.088-4.069 4.79-6.911 9.002-6.911h66.512c4.143 0 7.5-3.357 7.5-7.5s-3.357-7.5-7.5-7.5h-66.512c-10.802 0-20.317 7.162-23.339 17.487l-15.451 36.464h-42.567v-55.235c0-8.384-4.431-16.312-11.562-20.689-44.477-27.305-71.141-74.717-71.326-126.828-.262-72.978 53.349-135.588 125.552-147.77 1.435 2.709 3.006 5.337 4.702 7.874h-11.247c-5.612 0-10.178 4.565-10.178 10.178v19.645c0 5.612 4.565 10.178 10.178 10.178h5.926c4.143 0 7.5-3.357 7.5-7.5s-3.357-7.5-7.5-7.5h-1.104v-10h19.005c4.199 4.028 8.788 7.653 13.703 10.812-2.435 1.239-4.104 3.769-4.104 6.688 0 4.143 3.357 7.5 7.5 7.5h129.568c5.611 0 10.177-4.565 10.177-10.178v-19.645c0-5.612-4.565-10.178-10.177-10.178h-9.909c2.136-3.195 4.073-6.535 5.792-10h3.486c14.378 0 28.549 2.031 42.196 6.043l-18.28 47.931c-1.476 3.87.465 8.204 4.335 9.681 3.902 1.485 8.215-.494 9.681-4.335 27.629-72.443 21.101-55.319 22.117-57.989 4.256-11.161 14.862-18.809 26.71-19.425v77.988c0 4.143 3.357 7.5 7.5 7.5s7.5-3.357 7.5-7.5v-19.851c20.521 19.15 35.46 43.901 42.627 70.975 2.669 10.083 11.863 17.124 22.359 17.124h26.377c-.166 31.18-3.871 62.359-11.02 92.712l-.194.823h-8.468c-23.704 0-46.671 10.286-63.013 28.223-9.486 10.412-20.37 19.425-32.35 26.786-7.275 4.471-11.619 12.219-11.619 20.727v55.234h-42.567l-15.451-36.464c-3.021-10.325-12.536-17.487-23.338-17.487h-8.217c-4.143 0-7.5 3.357-7.5 7.5s3.357 7.5 7.5 7.5h8.217c4.212 0 7.913 2.842 9.001 6.911.09.338.203.668.34.989l16.55 39.057c1.801 4.249 5.946 6.994 10.561 6.994h48.436c6.324 0 11.47-5.146 11.47-11.47v-58.765c0-3.255 1.672-6.226 4.473-7.947 13.178-8.098 25.15-18.011 35.584-29.464 13.506-14.822 32.432-23.324 51.925-23.324h10.211c5.968 0 11.09-4.057 12.457-9.863l.595-2.521c7.584-32.204 11.428-65.306 11.425-98.386-.002-7.038-5.743-12.765-12.801-12.765zm-279.276-227.653c41.22 0 74.755 33.535 74.755 74.755 0 41.221-33.535 74.756-74.755 74.756-41.221 0-74.756-33.535-74.756-74.756 0-41.22 33.535-74.755 74.756-74.755zm79.755 149.511h-30.129c4.449-2.963 8.619-6.312 12.463-10h17.665v10z"/></g></svg>